M48
;DRILL file {KiCad 4.0.7+dfsg1-1} date Sun Jan 28 21:38:05 2018
;FORMAT={-:-/ absolute / inch / decimal}
FMAT,2
INCH,TZ
T1C0.010
T2C0.012
T3C0.012
T4C0.015
T5C0.016
T6C0.040
T7C0.030
T8C0.126
%
G90
G05
M72
T1
X6.2305Y-4.175
X6.2305Y-4.195
X6.2305Y-4.215
T2
X4.6415Y-4.404
X4.7515Y-3.864
T3
X4.5315Y-3.784
X4.5315Y-3.824
X4.5315Y-3.874
X4.5315Y-3.914
X4.5365Y-4.484
X4.5376Y-4.434
X4.5415Y-3.6879
X4.5415Y-3.734
X4.5415Y-4.534
X4.5415Y-4.5761
X4.723Y-4.079
X4.7265Y-4.194
X4.7515Y-3.774
X4.7565Y-4.099
X4.7776Y-4.2019
X4.8015Y-4.014
X4.8176Y-3.8024
X4.8215Y-3.844
X4.8215Y-3.894
X4.8215Y-4.484
X4.9065Y-4.039
X4.9139Y-4.2822
X4.9465Y-4.149
X4.95Y-3.7369
X4.9515Y-4.474
X4.9715Y-3.824
X4.9815Y-4.194
X4.9992Y-4.3974
X5.0215Y-4.374
X5.0415Y-3.764
X5.0415Y-4.244
X5.0615Y-3.934
X5.065Y-4.4901
X5.0715Y-3.874
X5.1045Y-3.8112
X5.1215Y-4.254
X5.1215Y-4.474
X5.1394Y-4.3019
X5.1415Y-3.924
X5.1615Y-3.814
X5.1621Y-4.0082
X5.1669Y-4.5238
X5.1708Y-4.3663
X5.2085Y-3.88
X5.2112Y-3.7983
X5.2221Y-4.0982
X5.2355Y-3.997
X5.2465Y-4.234
X5.2965Y-3.814
X5.2965Y-3.8893
X5.2965Y-4.399
X5.306Y-4.066
X5.3401Y-4.4959
X5.3404Y-4.033
X5.4015Y-4.374
X5.4076Y-4.294
X5.4076Y-4.2571
X5.4165Y-3.834
X5.4621Y-4.4568
X5.4929Y-4.2079
X5.5015Y-4.4529
X5.5095Y-4.2716
X5.5515Y-4.484
X5.5516Y-3.9838
X5.5715Y-3.834
X5.5724Y-4.4371
X5.5835Y-4.3729
X5.5891Y-3.8961
X5.593Y-4.104
X5.5958Y-4.0558
X5.6015Y-4.4797
X5.6124Y-3.8025
X5.6215Y-4.024
X5.6354Y-4.2151
X5.6372Y-4.1679
X5.6374Y-4.1212
X5.6394Y-3.9761
X5.647Y-4.2889
X5.6515Y-4.4758
X5.6615Y-4.044
X5.6635Y-3.9991
X5.6685Y-4.3679
X5.6715Y-3.804
X5.6863Y-3.8983
X5.7012Y-4.3516
X5.7256Y-3.7951
X5.7431Y-4.3999
X5.7591Y-3.7643
X5.7619Y-3.992
X5.7715Y-4.3408
X5.7797Y-3.9176
X5.7839Y-4.4719
X5.8015Y-4.299
X5.8086Y-3.979
X5.8094Y-4.424
X5.8215Y-3.934
X5.8283Y-3.882
X5.8397Y-4.1869
X5.8421Y-4.4683
X5.8525Y-4.248
X5.8545Y-4.217
X5.8615Y-3.994
X5.8635Y-3.864
X5.8715Y-4.124
X5.8765Y-4.05
X5.8908Y-4.4287
X5.8915Y-3.834
X5.9095Y-4.045
X5.9215Y-3.834
X5.9615Y-3.794
X5.9615Y-3.834
X5.9635Y-4.43
X5.9705Y-4.379
X5.9755Y-3.991
X5.9915Y-4.474
X6.0015Y-3.794
X6.0025Y-4.43
X6.0205Y-4.117
X6.0205Y-4.155
X6.0205Y-4.193
X6.0215Y-4.474
X6.0385Y-4.436
X6.0465Y-3.897
X6.0515Y-3.794
X6.0515Y-3.844
X6.0515Y-4.474
X6.0575Y-4.117
X6.0575Y-4.155
X6.0585Y-4.193
X6.0585Y-4.384
X6.0685Y-4.409
X6.0815Y-4.474
X6.0935Y-4.384
X6.0955Y-3.894
X6.0975Y-3.929
X6.0975Y-4.117
X6.0975Y-4.155
X6.0975Y-4.193
X6.1015Y-3.794
X6.1015Y-3.844
X6.1085Y-4.44
X6.1145Y-4.474
X6.1185Y-4.41
X6.1285Y-3.924
X6.1285Y-4.383
X6.1445Y-4.474
X6.1485Y-4.4
X6.1515Y-3.794
X6.1515Y-3.844
X6.1515Y-3.894
X6.1625Y-3.924
X6.1645Y-4.295
X6.1855Y-4.467
X6.1975Y-3.991
X6.2015Y-3.794
X6.2015Y-3.844
X6.2015Y-3.894
X6.2015Y-3.944
X6.2015Y-4.494
X6.2215Y-4.468
X6.2515Y-3.794
X6.2515Y-3.844
X6.2515Y-3.894
X6.2515Y-3.944
X6.2515Y-3.994
X6.2515Y-4.284
X6.2515Y-4.334
X6.2515Y-4.384
X6.2535Y-4.134
X6.2535Y-4.255
X6.2635Y-4.475
X6.2795Y-4.028
X6.3015Y-3.794
X6.3015Y-3.844
X6.3015Y-3.894
X6.3015Y-3.944
X6.3015Y-3.994
X6.3015Y-4.234
X6.3015Y-4.284
X6.3015Y-4.334
X6.3015Y-4.384
X6.3015Y-4.434
X6.3015Y-4.484
X6.3345Y-4.025
X6.3345Y-4.06
X6.3345Y-4.101
X6.3445Y-3.85
X6.3515Y-3.794
X6.3515Y-3.894
X6.3515Y-3.944
X6.3515Y-3.994
X6.3515Y-4.284
X6.3515Y-4.334
X6.3515Y-4.384
X6.3515Y-4.434
X6.3515Y-4.484
X6.3735Y-4.128
X6.3905Y-4.07
X6.3945Y-4.025
X6.4015Y-3.784
X6.4015Y-3.844
X6.4015Y-3.894
X6.4015Y-3.944
X6.4015Y-3.994
X6.4015Y-4.384
X6.4015Y-4.434
X6.4015Y-4.484
X6.4145Y-4.085
X6.4495Y-3.735
X6.4495Y-4.021
X6.4495Y-4.083
X6.4505Y-4.053
X6.4515Y-3.789
X6.4515Y-3.844
X6.4515Y-3.894
X6.4515Y-3.944
X6.4515Y-3.984
X6.4515Y-4.234
X6.4515Y-4.434
X6.4515Y-4.484
X6.4515Y-4.534
X6.4965Y-3.739
X6.5015Y-4.184
X6.5015Y-4.234
X6.5015Y-4.434
X6.5015Y-4.484
X6.5015Y-4.534
X6.5515Y-3.739
X6.5515Y-3.884
X6.5515Y-3.934
X6.5515Y-3.984
X6.5515Y-4.034
X6.5515Y-4.084
X6.5515Y-4.134
X6.5515Y-4.184
X6.5515Y-4.234
X6.5515Y-4.284
X6.5515Y-4.384
X6.5515Y-4.434
X6.5515Y-4.484
X6.5515Y-4.534
X6.5515Y-4.584
X6.5815Y-3.854
X6.5995Y-4.335
X6.5995Y-4.385
X6.5995Y-4.435
X6.5995Y-4.485
X6.5995Y-4.535
X6.5995Y-4.585
X6.6015Y-3.684
X6.6015Y-3.739
X6.6015Y-3.884
X6.6015Y-3.934
X6.6015Y-3.984
X6.6015Y-4.034
X6.6015Y-4.084
X6.6015Y-4.134
X6.6015Y-4.184
X6.6015Y-4.234
X6.6015Y-4.284
X6.6115Y-3.829
X6.6495Y-4.335
X6.6495Y-4.385
X6.6495Y-4.435
X6.6495Y-4.485
X6.6495Y-4.535
X6.6495Y-4.585
X6.6515Y-3.684
X6.6515Y-3.739
X6.6515Y-3.824
X6.6515Y-3.854
X6.6515Y-3.884
X6.6515Y-3.934
X6.6515Y-3.984
X6.6515Y-4.034
X6.6515Y-4.084
X6.6515Y-4.134
X6.6515Y-4.184
X6.6515Y-4.234
X6.6515Y-4.284
T4
X6.9445Y-3.8623
X6.9445Y-3.9411
X6.9445Y-4.0198
X6.9445Y-4.0986
X6.9445Y-4.1773
X6.9445Y-4.256
X6.9445Y-4.3348
X6.9445Y-4.4135
X6.9445Y-4.4923
X7.1415Y-3.7836
X7.1415Y-3.8623
X7.1415Y-3.9411
X7.1415Y-4.0198
X7.1415Y-4.0986
X7.1415Y-4.1773
X7.1415Y-4.256
X7.1415Y-4.3348
X7.1415Y-4.4135
X7.1415Y-4.4923
T5
X4.7115Y-4.4437
X5.1454Y-4.2022
X5.1515Y-4.104
X5.3015Y-4.224
X5.5115Y-4.134
T6
X4.6015Y-3.684
X4.6015Y-4.584
X4.7015Y-3.684
X4.7015Y-4.584
X4.8015Y-3.684
X4.8015Y-4.584
X4.9015Y-3.684
X4.9015Y-4.584
X5.0015Y-3.684
X5.0015Y-4.584
X5.1015Y-3.684
X5.1015Y-4.584
X5.2015Y-3.684
X5.2015Y-4.584
X5.3015Y-3.684
X5.3015Y-4.584
X5.4015Y-3.684
X5.4015Y-4.584
X5.5015Y-3.684
X5.5015Y-4.584
X5.6015Y-3.684
X5.6015Y-4.584
X5.7015Y-3.684
X5.7015Y-4.584
X5.8015Y-3.684
X5.8015Y-4.584
X5.9015Y-3.684
X5.9015Y-4.584
X6.0015Y-3.684
X6.0015Y-4.584
X6.1015Y-3.684
X6.1015Y-4.584
X6.2015Y-3.684
X6.2015Y-4.584
X6.3015Y-3.684
X6.3015Y-4.584
X6.4015Y-3.684
X6.4015Y-4.584
X6.5015Y-3.684
X6.5015Y-4.584
T7
X4.7315Y-3.614
X4.7715Y-3.614
X4.8115Y-3.614
X4.8515Y-3.614
X4.8915Y-3.614
X4.9315Y-3.614
X6.5015Y-3.614
X6.5415Y-3.614
X6.5815Y-3.614
X6.6215Y-3.614
X6.6615Y-3.614
X6.7015Y-3.614
T8
X5.7465Y-4.134
T0
M30
