G04 #@! TF.FileFunction,Soldermask,Top*
%FSLAX46Y46*%
G04 Gerber Fmt 4.6, Leading zero omitted, Abs format (unit mm)*
G04 Created by KiCad (PCBNEW 4.0.7+dfsg1-1) date Sun Jan 28 21:58:49 2018*
%MOMM*%
%LPD*%
G01*
G04 APERTURE LIST*
%ADD10C,0.100000*%
%ADD11R,1.000000X1.000000*%
%ADD12R,1.350000X1.250000*%
%ADD13R,1.200000X0.684600*%
%ADD14R,0.684600X1.200000*%
%ADD15R,3.850000X3.850000*%
%ADD16O,0.650000X1.400000*%
%ADD17O,1.400000X0.650000*%
%ADD18R,1.593800X1.797000*%
%ADD19R,0.950000X1.600000*%
%ADD20R,1.000000X1.200000*%
%ADD21R,1.030000X1.230000*%
%ADD22R,1.550000X1.850000*%
%ADD23R,1.850000X1.550000*%
%ADD24R,1.200000X0.700000*%
%ADD25R,0.700000X1.200000*%
%ADD26R,1.200000X1.200000*%
%ADD27R,2.279600X2.279600*%
%ADD28C,2.279600*%
%ADD29R,2.600000X1.250000*%
%ADD30R,1.450000X1.400000*%
%ADD31R,1.200000X1.800000*%
%ADD32R,1.860000X1.760000*%
%ADD33R,0.700000X1.150000*%
%ADD34R,1.750000X0.800000*%
%ADD35R,1.950000X1.900000*%
%ADD36O,2.000000X1.300000*%
%ADD37R,1.800000X2.000000*%
%ADD38C,0.908000*%
%ADD39C,0.857200*%
G04 APERTURE END LIST*
D10*
G36*
X155495500Y-103902000D02*
X152225500Y-103902000D01*
X152225500Y-107172000D01*
X155495500Y-107172000D01*
X155495500Y-103902000D01*
G37*
D11*
X149821900Y-106916600D03*
X149821900Y-107916600D03*
X149663100Y-105941800D03*
X148663100Y-105941800D03*
X152615900Y-110498000D03*
X152615900Y-111498000D03*
X150118700Y-103378000D03*
X149118700Y-103378000D03*
X154774900Y-110583600D03*
X154774900Y-109583600D03*
X157627700Y-102311200D03*
X158627700Y-102311200D03*
X158846900Y-103225600D03*
X159846900Y-103225600D03*
X158846900Y-104165400D03*
X159846900Y-104165400D03*
X153911300Y-109558200D03*
X153911300Y-110558200D03*
X155689300Y-109558200D03*
X155689300Y-110558200D03*
X157594300Y-108720000D03*
X157594300Y-109720000D03*
X157111700Y-111726600D03*
X157111700Y-110726600D03*
X158026100Y-110726600D03*
X158026100Y-111726600D03*
X158059500Y-112750600D03*
X159059500Y-112750600D03*
X157103700Y-112725200D03*
X156103700Y-112725200D03*
D12*
X150112900Y-99221600D03*
X151562900Y-99221600D03*
X151562900Y-100371600D03*
X150112900Y-100371600D03*
D11*
X149085300Y-100347400D03*
X149085300Y-99347400D03*
X151083900Y-98171000D03*
X150083900Y-98171000D03*
D13*
X151385500Y-103787000D03*
X151385500Y-104287000D03*
X151385500Y-104787000D03*
X151385500Y-105287000D03*
X151385500Y-105787000D03*
X151385500Y-106287000D03*
X151385500Y-106787000D03*
X151385500Y-107287000D03*
D14*
X152110500Y-108012000D03*
X152610500Y-108012000D03*
X153110500Y-108012000D03*
X153610500Y-108012000D03*
X154110500Y-108012000D03*
X154610500Y-108012000D03*
X155110500Y-108012000D03*
X155610500Y-108012000D03*
D13*
X156335500Y-107287000D03*
X156335500Y-106787000D03*
X156335500Y-106287000D03*
X156335500Y-105787000D03*
X156335500Y-105287000D03*
X156335500Y-104787000D03*
X156335500Y-104287000D03*
X156335500Y-103787000D03*
D14*
X155610500Y-103062000D03*
X155110500Y-103062000D03*
X154610500Y-103062000D03*
X154110500Y-103062000D03*
X153610500Y-103062000D03*
X153110500Y-103062000D03*
X152610500Y-103062000D03*
X152110500Y-103062000D03*
D15*
X153860500Y-105537000D03*
D11*
X156476700Y-101719000D03*
X156476700Y-100719000D03*
X153479500Y-101109400D03*
X153479500Y-100109400D03*
X154698700Y-101744400D03*
X154698700Y-100744400D03*
X155613100Y-101719000D03*
X155613100Y-100719000D03*
X152844500Y-98213800D03*
X152844500Y-97213800D03*
D16*
X131073894Y-108708853D03*
X131573894Y-108708853D03*
X132073894Y-108708853D03*
X132573894Y-108708853D03*
X133073894Y-108708853D03*
X133573894Y-108708853D03*
X134073894Y-108708853D03*
X134573894Y-108708853D03*
X135073894Y-108708853D03*
X135573894Y-108708853D03*
X136073894Y-108708853D03*
X136573894Y-108708853D03*
D17*
X138073894Y-107208853D03*
X138073894Y-106708853D03*
X138073894Y-106208853D03*
X138073894Y-105708853D03*
X138073894Y-105208853D03*
X138073894Y-104708853D03*
X138073894Y-104208853D03*
X138073894Y-103708853D03*
X138073894Y-103208853D03*
X138073894Y-102708853D03*
X138073894Y-102208853D03*
X138073894Y-101708853D03*
D16*
X136573894Y-100208853D03*
X136073894Y-100208853D03*
X135573894Y-100208853D03*
X135073894Y-100208853D03*
X134573894Y-100208853D03*
X134073894Y-100208853D03*
X133573894Y-100208853D03*
X133073894Y-100208853D03*
X132573894Y-100208853D03*
X132073894Y-100208853D03*
X131573894Y-100208853D03*
X131073894Y-100208853D03*
D17*
X129573894Y-101708853D03*
X129573894Y-102208853D03*
X129573894Y-102708853D03*
X129573894Y-103208853D03*
X129573894Y-103708853D03*
X129573894Y-104208853D03*
X129573894Y-104708853D03*
X129573894Y-105208853D03*
X129573894Y-105708853D03*
X129573894Y-106208853D03*
X129573894Y-106708853D03*
X129573894Y-107208853D03*
D11*
X128816100Y-108440600D03*
X128816100Y-109440600D03*
X127284100Y-102971600D03*
X126284100Y-102971600D03*
X140714047Y-105138441D03*
X141714047Y-105138441D03*
X136436100Y-112504600D03*
X136436100Y-113504600D03*
X134912100Y-113504600D03*
X134912100Y-112504600D03*
X127818288Y-108440600D03*
X127818288Y-109440600D03*
X128697100Y-111099600D03*
X129697100Y-111099600D03*
X137452100Y-112504600D03*
X137452100Y-113504600D03*
X133896100Y-112504600D03*
X133896100Y-113504600D03*
X141511469Y-108816425D03*
X140511469Y-108816425D03*
X123499806Y-106055478D03*
X124499806Y-106055478D03*
X124377247Y-111563725D03*
X125377247Y-111563725D03*
X122728100Y-103733600D03*
X123728100Y-103733600D03*
X122728100Y-104622600D03*
X123728100Y-104622600D03*
D18*
X123935859Y-109881228D03*
X123935859Y-107671428D03*
X125637659Y-107671428D03*
X125637659Y-109881228D03*
D19*
X121638100Y-96845500D03*
X120688100Y-96845500D03*
X119738100Y-96845500D03*
X119738100Y-99445700D03*
X121638100Y-99445700D03*
D20*
X121428100Y-101955600D03*
X119948100Y-101955600D03*
D21*
X115982100Y-99796600D03*
X118282100Y-99796600D03*
D22*
X116232100Y-98145600D03*
X118032100Y-98145600D03*
D23*
X123482100Y-100823600D03*
X123482100Y-99023600D03*
D11*
X141508100Y-110083600D03*
X140508100Y-110083600D03*
X144810100Y-100685600D03*
X143810100Y-100685600D03*
X141508100Y-107670600D03*
X140508100Y-107670600D03*
X123337700Y-96689616D03*
X124337700Y-96689616D03*
X123337700Y-97573509D03*
X124337700Y-97573509D03*
X128895513Y-113454097D03*
X128895513Y-112454097D03*
X123728100Y-102717600D03*
X122728100Y-102717600D03*
D24*
X157454700Y-106303000D03*
X157454700Y-106803000D03*
X157454700Y-107303000D03*
X159054700Y-107303000D03*
X159054700Y-106803000D03*
X159054700Y-106303000D03*
D25*
X158254700Y-107753000D03*
D24*
X157454700Y-105803000D03*
X159054700Y-105803000D03*
D25*
X158254700Y-105353000D03*
D26*
X115653300Y-111738200D03*
X115653300Y-110238200D03*
D11*
X117194300Y-110713800D03*
X118194300Y-110713800D03*
D19*
X119992100Y-111383700D03*
X120942100Y-111383700D03*
X121892100Y-111383700D03*
X121892100Y-108783500D03*
X119992100Y-108783500D03*
D11*
X118187700Y-109700800D03*
X117187700Y-109700800D03*
X131983100Y-113563400D03*
X130983100Y-113563400D03*
X130983100Y-112623600D03*
X131983100Y-112623600D03*
D27*
X165138100Y-93573600D03*
D28*
X162598100Y-93573600D03*
X160058100Y-93573600D03*
X157518100Y-93573600D03*
X154978100Y-93573600D03*
X152438100Y-93573600D03*
X149898100Y-93573600D03*
X147358100Y-93573600D03*
X144818100Y-93573600D03*
X142278100Y-93573600D03*
X139738100Y-93573600D03*
X137198100Y-93573600D03*
X134658100Y-93573600D03*
X132118100Y-93573600D03*
X129578100Y-93573600D03*
X127038100Y-93573600D03*
X124498100Y-93573600D03*
X121958100Y-93573600D03*
X119418100Y-93573600D03*
X116878100Y-93573600D03*
D11*
X166662100Y-97121600D03*
X166662100Y-96121600D03*
D29*
X164517100Y-111523600D03*
X164517100Y-108773600D03*
D30*
X162992100Y-110148600D03*
X166042100Y-110148600D03*
D11*
X162496500Y-106518600D03*
X162496500Y-107518600D03*
X162496500Y-106533600D03*
X162496500Y-105533600D03*
X169710100Y-96121600D03*
X169710100Y-97121600D03*
X167686100Y-96113600D03*
X168686100Y-96113600D03*
D31*
X146686100Y-107603600D03*
X145236100Y-107603600D03*
X145236100Y-102403600D03*
X146686100Y-102403600D03*
D27*
X116878100Y-116433600D03*
D28*
X119418100Y-116433600D03*
X121958100Y-116433600D03*
X124498100Y-116433600D03*
X127038100Y-116433600D03*
X129578100Y-116433600D03*
X132118100Y-116433600D03*
X134658100Y-116433600D03*
X137198100Y-116433600D03*
X139738100Y-116433600D03*
X142278100Y-116433600D03*
X144818100Y-116433600D03*
X147358100Y-116433600D03*
X149898100Y-116433600D03*
X152438100Y-116433600D03*
X154978100Y-116433600D03*
X157518100Y-116433600D03*
X160058100Y-116433600D03*
X162598100Y-116433600D03*
X165138100Y-116433600D03*
D11*
X161494188Y-107518175D03*
X162494188Y-107518175D03*
X162499472Y-104518353D03*
X162499472Y-105518353D03*
X127992303Y-112461037D03*
X127992303Y-113461037D03*
X127061516Y-112469903D03*
X127061516Y-113469903D03*
D32*
X126276100Y-99669600D03*
D33*
X126026100Y-98169600D03*
X126526100Y-98169600D03*
X127026100Y-98169600D03*
X125526100Y-98169600D03*
X125526100Y-101169600D03*
X126026100Y-101169600D03*
X126526100Y-101169600D03*
X127026100Y-101169600D03*
D34*
X118488100Y-103703600D03*
X118488100Y-106303600D03*
X118488100Y-104353600D03*
X118488100Y-105003600D03*
X118488100Y-105653600D03*
D35*
X115788100Y-104003600D03*
X115798100Y-106003600D03*
D36*
X115788100Y-101703600D03*
X115798100Y-108303600D03*
D37*
X118288100Y-101803600D03*
X118288100Y-108203600D03*
D11*
X128308100Y-98153600D03*
X128308100Y-99153600D03*
X128308100Y-96375600D03*
X128308100Y-97375600D03*
D21*
X118282100Y-96367600D03*
X115982100Y-96367600D03*
D38*
X158026100Y-113487200D03*
D39*
X158254700Y-106553000D03*
X158254700Y-106045000D03*
X158254700Y-107061000D03*
M02*
