G04 #@! TF.FileFunction,Drawing*
%FSLAX46Y46*%
G04 Gerber Fmt 4.6, Leading zero omitted, Abs format (unit mm)*
G04 Created by KiCad (PCBNEW 4.0.7+dfsg1-1) date Sun Jan 28 21:58:49 2018*
%MOMM*%
%LPD*%
G01*
G04 APERTURE LIST*
%ADD10C,0.100000*%
%ADD11C,0.300000*%
%ADD12C,0.152400*%
%ADD13C,0.127000*%
%ADD14C,0.101600*%
%ADD15C,0.203200*%
G04 APERTURE END LIST*
D10*
D11*
X143026501Y-87490572D02*
X142740787Y-87490572D01*
X142597930Y-87562001D01*
X142526501Y-87633430D01*
X142383644Y-87847715D01*
X142312215Y-88133430D01*
X142312215Y-88704858D01*
X142383644Y-88847715D01*
X142455072Y-88919144D01*
X142597930Y-88990572D01*
X142883644Y-88990572D01*
X143026501Y-88919144D01*
X143097930Y-88847715D01*
X143169358Y-88704858D01*
X143169358Y-88347715D01*
X143097930Y-88204858D01*
X143026501Y-88133430D01*
X142883644Y-88062001D01*
X142597930Y-88062001D01*
X142455072Y-88133430D01*
X142383644Y-88204858D01*
X142312215Y-88347715D01*
X144026501Y-88133430D02*
X143883643Y-88062001D01*
X143812215Y-87990572D01*
X143740786Y-87847715D01*
X143740786Y-87776287D01*
X143812215Y-87633430D01*
X143883643Y-87562001D01*
X144026501Y-87490572D01*
X144312215Y-87490572D01*
X144455072Y-87562001D01*
X144526501Y-87633430D01*
X144597929Y-87776287D01*
X144597929Y-87847715D01*
X144526501Y-87990572D01*
X144455072Y-88062001D01*
X144312215Y-88133430D01*
X144026501Y-88133430D01*
X143883643Y-88204858D01*
X143812215Y-88276287D01*
X143740786Y-88419144D01*
X143740786Y-88704858D01*
X143812215Y-88847715D01*
X143883643Y-88919144D01*
X144026501Y-88990572D01*
X144312215Y-88990572D01*
X144455072Y-88919144D01*
X144526501Y-88847715D01*
X144597929Y-88704858D01*
X144597929Y-88419144D01*
X144526501Y-88276287D01*
X144455072Y-88204858D01*
X144312215Y-88133430D01*
X145240786Y-88847715D02*
X145312214Y-88919144D01*
X145240786Y-88990572D01*
X145169357Y-88919144D01*
X145240786Y-88847715D01*
X145240786Y-88990572D01*
X146740786Y-88990572D02*
X145883643Y-88990572D01*
X146312215Y-88990572D02*
X146312215Y-87490572D01*
X146169358Y-87704858D01*
X146026500Y-87847715D01*
X145883643Y-87919144D01*
X147455071Y-88990572D02*
X147740786Y-88990572D01*
X147883643Y-88919144D01*
X147955071Y-88847715D01*
X148097929Y-88633430D01*
X148169357Y-88347715D01*
X148169357Y-87776287D01*
X148097929Y-87633430D01*
X148026500Y-87562001D01*
X147883643Y-87490572D01*
X147597929Y-87490572D01*
X147455071Y-87562001D01*
X147383643Y-87633430D01*
X147312214Y-87776287D01*
X147312214Y-88133430D01*
X147383643Y-88276287D01*
X147455071Y-88347715D01*
X147597929Y-88419144D01*
X147883643Y-88419144D01*
X148026500Y-88347715D01*
X148097929Y-88276287D01*
X148169357Y-88133430D01*
X148883642Y-88990572D02*
X149169357Y-88990572D01*
X149312214Y-88919144D01*
X149383642Y-88847715D01*
X149526500Y-88633430D01*
X149597928Y-88347715D01*
X149597928Y-87776287D01*
X149526500Y-87633430D01*
X149455071Y-87562001D01*
X149312214Y-87490572D01*
X149026500Y-87490572D01*
X148883642Y-87562001D01*
X148812214Y-87633430D01*
X148740785Y-87776287D01*
X148740785Y-88133430D01*
X148812214Y-88276287D01*
X148883642Y-88347715D01*
X149026500Y-88419144D01*
X149312214Y-88419144D01*
X149455071Y-88347715D01*
X149526500Y-88276287D01*
X149597928Y-88133430D01*
X151383642Y-88990572D02*
X151383642Y-87990572D01*
X151383642Y-88133430D02*
X151455070Y-88062001D01*
X151597928Y-87990572D01*
X151812213Y-87990572D01*
X151955070Y-88062001D01*
X152026499Y-88204858D01*
X152026499Y-88990572D01*
X152026499Y-88204858D02*
X152097928Y-88062001D01*
X152240785Y-87990572D01*
X152455070Y-87990572D01*
X152597928Y-88062001D01*
X152669356Y-88204858D01*
X152669356Y-88990572D01*
X153383642Y-88990572D02*
X153383642Y-87990572D01*
X153383642Y-88133430D02*
X153455070Y-88062001D01*
X153597928Y-87990572D01*
X153812213Y-87990572D01*
X153955070Y-88062001D01*
X154026499Y-88204858D01*
X154026499Y-88990572D01*
X154026499Y-88204858D02*
X154097928Y-88062001D01*
X154240785Y-87990572D01*
X154455070Y-87990572D01*
X154597928Y-88062001D01*
X154669356Y-88204858D01*
X154669356Y-88990572D01*
X182626000Y-89662001D02*
X114427000Y-89662001D01*
X182626000Y-93345000D02*
X182626000Y-86962001D01*
X114427000Y-93345000D02*
X114427000Y-86962001D01*
X114427000Y-89662001D02*
X115553504Y-89075580D01*
X114427000Y-89662001D02*
X115553504Y-90248422D01*
X182626000Y-89662001D02*
X181499496Y-89075580D01*
X182626000Y-89662001D02*
X181499496Y-90248422D01*
X192528571Y-98814715D02*
X192600000Y-98886144D01*
X192671429Y-99029001D01*
X192671429Y-99386144D01*
X192600000Y-99529001D01*
X192528571Y-99600430D01*
X192385714Y-99671858D01*
X192242857Y-99671858D01*
X192028571Y-99600430D01*
X191171429Y-98743287D01*
X191171429Y-99671858D01*
X192671429Y-101029001D02*
X192671429Y-100314715D01*
X191957143Y-100243286D01*
X192028571Y-100314715D01*
X192100000Y-100457572D01*
X192100000Y-100814715D01*
X192028571Y-100957572D01*
X191957143Y-101029001D01*
X191814286Y-101100429D01*
X191457143Y-101100429D01*
X191314286Y-101029001D01*
X191242857Y-100957572D01*
X191171429Y-100814715D01*
X191171429Y-100457572D01*
X191242857Y-100314715D01*
X191314286Y-100243286D01*
X191314286Y-101743286D02*
X191242857Y-101814714D01*
X191171429Y-101743286D01*
X191242857Y-101671857D01*
X191314286Y-101743286D01*
X191171429Y-101743286D01*
X192171429Y-103100429D02*
X191171429Y-103100429D01*
X192742857Y-102743286D02*
X191671429Y-102386143D01*
X191671429Y-103314715D01*
X192671429Y-104171857D02*
X192671429Y-104314714D01*
X192600000Y-104457571D01*
X192528571Y-104529000D01*
X192385714Y-104600429D01*
X192100000Y-104671857D01*
X191742857Y-104671857D01*
X191457143Y-104600429D01*
X191314286Y-104529000D01*
X191242857Y-104457571D01*
X191171429Y-104314714D01*
X191171429Y-104171857D01*
X191242857Y-104029000D01*
X191314286Y-103957571D01*
X191457143Y-103886143D01*
X191742857Y-103814714D01*
X192100000Y-103814714D01*
X192385714Y-103886143D01*
X192528571Y-103957571D01*
X192600000Y-104029000D01*
X192671429Y-104171857D01*
X192671429Y-105600428D02*
X192671429Y-105743285D01*
X192600000Y-105886142D01*
X192528571Y-105957571D01*
X192385714Y-106029000D01*
X192100000Y-106100428D01*
X191742857Y-106100428D01*
X191457143Y-106029000D01*
X191314286Y-105957571D01*
X191242857Y-105886142D01*
X191171429Y-105743285D01*
X191171429Y-105600428D01*
X191242857Y-105457571D01*
X191314286Y-105386142D01*
X191457143Y-105314714D01*
X191742857Y-105243285D01*
X192100000Y-105243285D01*
X192385714Y-105314714D01*
X192528571Y-105386142D01*
X192600000Y-105457571D01*
X192671429Y-105600428D01*
X191171429Y-107886142D02*
X192171429Y-107886142D01*
X192028571Y-107886142D02*
X192100000Y-107957570D01*
X192171429Y-108100428D01*
X192171429Y-108314713D01*
X192100000Y-108457570D01*
X191957143Y-108528999D01*
X191171429Y-108528999D01*
X191957143Y-108528999D02*
X192100000Y-108600428D01*
X192171429Y-108743285D01*
X192171429Y-108957570D01*
X192100000Y-109100428D01*
X191957143Y-109171856D01*
X191171429Y-109171856D01*
X191171429Y-109886142D02*
X192171429Y-109886142D01*
X192028571Y-109886142D02*
X192100000Y-109957570D01*
X192171429Y-110100428D01*
X192171429Y-110314713D01*
X192100000Y-110457570D01*
X191957143Y-110528999D01*
X191171429Y-110528999D01*
X191957143Y-110528999D02*
X192100000Y-110600428D01*
X192171429Y-110743285D01*
X192171429Y-110957570D01*
X192100000Y-111100428D01*
X191957143Y-111171856D01*
X191171429Y-111171856D01*
X190500000Y-92329000D02*
X190500000Y-117729000D01*
X180848000Y-92329000D02*
X193200000Y-92329000D01*
X180848000Y-117729000D02*
X193200000Y-117729000D01*
X190500000Y-117729000D02*
X189913579Y-116602496D01*
X190500000Y-117729000D02*
X191086421Y-116602496D01*
X190500000Y-92329000D02*
X189913579Y-93455504D01*
X190500000Y-92329000D02*
X191086421Y-93455504D01*
D12*
X150045900Y-107171600D02*
X150045900Y-107661600D01*
X149597900Y-107661600D02*
X149597900Y-107171600D01*
D10*
G36*
X149517100Y-106862600D02*
X149517100Y-107162600D01*
X150117000Y-107162600D01*
X150117000Y-106862600D01*
X149517100Y-106862600D01*
G37*
G36*
X149517100Y-107675400D02*
X149517100Y-107975400D01*
X150117000Y-107975400D01*
X150117000Y-107675400D01*
X149517100Y-107675400D01*
G37*
D12*
X149408100Y-106165800D02*
X148918100Y-106165800D01*
X148918100Y-105717800D02*
X149408100Y-105717800D01*
D10*
G36*
X149717100Y-105637000D02*
X149417100Y-105637000D01*
X149417100Y-106236900D01*
X149717100Y-106236900D01*
X149717100Y-105637000D01*
G37*
G36*
X148904300Y-105637000D02*
X148604300Y-105637000D01*
X148604300Y-106236900D01*
X148904300Y-106236900D01*
X148904300Y-105637000D01*
G37*
D12*
X152839900Y-110753000D02*
X152839900Y-111243000D01*
X152391900Y-111243000D02*
X152391900Y-110753000D01*
D10*
G36*
X152311100Y-110444000D02*
X152311100Y-110744000D01*
X152911000Y-110744000D01*
X152911000Y-110444000D01*
X152311100Y-110444000D01*
G37*
G36*
X152311100Y-111256800D02*
X152311100Y-111556800D01*
X152911000Y-111556800D01*
X152911000Y-111256800D01*
X152311100Y-111256800D01*
G37*
D12*
X149863700Y-103602000D02*
X149373700Y-103602000D01*
X149373700Y-103154000D02*
X149863700Y-103154000D01*
D10*
G36*
X150172700Y-103073200D02*
X149872700Y-103073200D01*
X149872700Y-103673100D01*
X150172700Y-103673100D01*
X150172700Y-103073200D01*
G37*
G36*
X149359900Y-103073200D02*
X149059900Y-103073200D01*
X149059900Y-103673100D01*
X149359900Y-103673100D01*
X149359900Y-103073200D01*
G37*
D12*
X154550900Y-110328600D02*
X154550900Y-109838600D01*
X154998900Y-109838600D02*
X154998900Y-110328600D01*
D10*
G36*
X155079700Y-110637600D02*
X155079700Y-110337600D01*
X154479800Y-110337600D01*
X154479800Y-110637600D01*
X155079700Y-110637600D01*
G37*
G36*
X155079700Y-109824800D02*
X155079700Y-109524800D01*
X154479800Y-109524800D01*
X154479800Y-109824800D01*
X155079700Y-109824800D01*
G37*
D12*
X157882700Y-102087200D02*
X158372700Y-102087200D01*
X158372700Y-102535200D02*
X157882700Y-102535200D01*
D10*
G36*
X157573700Y-102616000D02*
X157873700Y-102616000D01*
X157873700Y-102016100D01*
X157573700Y-102016100D01*
X157573700Y-102616000D01*
G37*
G36*
X158386500Y-102616000D02*
X158686500Y-102616000D01*
X158686500Y-102016100D01*
X158386500Y-102016100D01*
X158386500Y-102616000D01*
G37*
D12*
X159101900Y-103001600D02*
X159591900Y-103001600D01*
X159591900Y-103449600D02*
X159101900Y-103449600D01*
D10*
G36*
X158792900Y-103530400D02*
X159092900Y-103530400D01*
X159092900Y-102930500D01*
X158792900Y-102930500D01*
X158792900Y-103530400D01*
G37*
G36*
X159605700Y-103530400D02*
X159905700Y-103530400D01*
X159905700Y-102930500D01*
X159605700Y-102930500D01*
X159605700Y-103530400D01*
G37*
D12*
X159101900Y-103941400D02*
X159591900Y-103941400D01*
X159591900Y-104389400D02*
X159101900Y-104389400D01*
D10*
G36*
X158792900Y-104470200D02*
X159092900Y-104470200D01*
X159092900Y-103870300D01*
X158792900Y-103870300D01*
X158792900Y-104470200D01*
G37*
G36*
X159605700Y-104470200D02*
X159905700Y-104470200D01*
X159905700Y-103870300D01*
X159605700Y-103870300D01*
X159605700Y-104470200D01*
G37*
D12*
X154135300Y-109813200D02*
X154135300Y-110303200D01*
X153687300Y-110303200D02*
X153687300Y-109813200D01*
D10*
G36*
X153606500Y-109504200D02*
X153606500Y-109804200D01*
X154206400Y-109804200D01*
X154206400Y-109504200D01*
X153606500Y-109504200D01*
G37*
G36*
X153606500Y-110317000D02*
X153606500Y-110617000D01*
X154206400Y-110617000D01*
X154206400Y-110317000D01*
X153606500Y-110317000D01*
G37*
D12*
X155913300Y-109813200D02*
X155913300Y-110303200D01*
X155465300Y-110303200D02*
X155465300Y-109813200D01*
D10*
G36*
X155384500Y-109504200D02*
X155384500Y-109804200D01*
X155984400Y-109804200D01*
X155984400Y-109504200D01*
X155384500Y-109504200D01*
G37*
G36*
X155384500Y-110317000D02*
X155384500Y-110617000D01*
X155984400Y-110617000D01*
X155984400Y-110317000D01*
X155384500Y-110317000D01*
G37*
D12*
X157818300Y-108975000D02*
X157818300Y-109465000D01*
X157370300Y-109465000D02*
X157370300Y-108975000D01*
D10*
G36*
X157289500Y-108666000D02*
X157289500Y-108966000D01*
X157889400Y-108966000D01*
X157889400Y-108666000D01*
X157289500Y-108666000D01*
G37*
G36*
X157289500Y-109478800D02*
X157289500Y-109778800D01*
X157889400Y-109778800D01*
X157889400Y-109478800D01*
X157289500Y-109478800D01*
G37*
D12*
X156887700Y-111471600D02*
X156887700Y-110981600D01*
X157335700Y-110981600D02*
X157335700Y-111471600D01*
D10*
G36*
X157416500Y-111780600D02*
X157416500Y-111480600D01*
X156816600Y-111480600D01*
X156816600Y-111780600D01*
X157416500Y-111780600D01*
G37*
G36*
X157416500Y-110967800D02*
X157416500Y-110667800D01*
X156816600Y-110667800D01*
X156816600Y-110967800D01*
X157416500Y-110967800D01*
G37*
D12*
X158250100Y-110981600D02*
X158250100Y-111471600D01*
X157802100Y-111471600D02*
X157802100Y-110981600D01*
D10*
G36*
X157721300Y-110672600D02*
X157721300Y-110972600D01*
X158321200Y-110972600D01*
X158321200Y-110672600D01*
X157721300Y-110672600D01*
G37*
G36*
X157721300Y-111485400D02*
X157721300Y-111785400D01*
X158321200Y-111785400D01*
X158321200Y-111485400D01*
X157721300Y-111485400D01*
G37*
D12*
X158314500Y-112526600D02*
X158804500Y-112526600D01*
X158804500Y-112974600D02*
X158314500Y-112974600D01*
D10*
G36*
X158005500Y-113055400D02*
X158305500Y-113055400D01*
X158305500Y-112455500D01*
X158005500Y-112455500D01*
X158005500Y-113055400D01*
G37*
G36*
X158818300Y-113055400D02*
X159118300Y-113055400D01*
X159118300Y-112455500D01*
X158818300Y-112455500D01*
X158818300Y-113055400D01*
G37*
D12*
X156848700Y-112949200D02*
X156358700Y-112949200D01*
X156358700Y-112501200D02*
X156848700Y-112501200D01*
D10*
G36*
X157157700Y-112420400D02*
X156857700Y-112420400D01*
X156857700Y-113020300D01*
X157157700Y-113020300D01*
X157157700Y-112420400D01*
G37*
G36*
X156344900Y-112420400D02*
X156044900Y-112420400D01*
X156044900Y-113020300D01*
X156344900Y-113020300D01*
X156344900Y-112420400D01*
G37*
D13*
X149837900Y-98996600D02*
X149837900Y-100596600D01*
X149837900Y-100596600D02*
X151837900Y-100596600D01*
X151837900Y-100596600D02*
X151837900Y-98996600D01*
X151837900Y-98996600D02*
X149837900Y-98996600D01*
D12*
X148861300Y-100092400D02*
X148861300Y-99602400D01*
X149309300Y-99602400D02*
X149309300Y-100092400D01*
D10*
G36*
X149390100Y-100401400D02*
X149390100Y-100101400D01*
X148790200Y-100101400D01*
X148790200Y-100401400D01*
X149390100Y-100401400D01*
G37*
G36*
X149390100Y-99588600D02*
X149390100Y-99288600D01*
X148790200Y-99288600D01*
X148790200Y-99588600D01*
X149390100Y-99588600D01*
G37*
D12*
X150828900Y-98395000D02*
X150338900Y-98395000D01*
X150338900Y-97947000D02*
X150828900Y-97947000D01*
D10*
G36*
X151137900Y-97866200D02*
X150837900Y-97866200D01*
X150837900Y-98466100D01*
X151137900Y-98466100D01*
X151137900Y-97866200D01*
G37*
G36*
X150325100Y-97866200D02*
X150025100Y-97866200D01*
X150025100Y-98466100D01*
X150325100Y-98466100D01*
X150325100Y-97866200D01*
G37*
D13*
X151360500Y-103037000D02*
X151360500Y-108037000D01*
X151360500Y-108037000D02*
X156360500Y-108037000D01*
X156360500Y-108037000D02*
X156360500Y-103037000D01*
X156360500Y-103037000D02*
X151360500Y-103037000D01*
D10*
G36*
X153990500Y-103037000D02*
X153990500Y-103437000D01*
X154230500Y-103437000D01*
X154230500Y-103037000D01*
X153990500Y-103037000D01*
G37*
G36*
X153490500Y-103037000D02*
X153490500Y-103437000D01*
X153730500Y-103437000D01*
X153730500Y-103037000D01*
X153490500Y-103037000D01*
G37*
G36*
X152990500Y-103037000D02*
X152990500Y-103437000D01*
X153230500Y-103437000D01*
X153230500Y-103037000D01*
X152990500Y-103037000D01*
G37*
G36*
X152490500Y-103037000D02*
X152490500Y-103437000D01*
X152730500Y-103437000D01*
X152730500Y-103037000D01*
X152490500Y-103037000D01*
G37*
G36*
X151990500Y-103037000D02*
X151990500Y-103437000D01*
X152230500Y-103437000D01*
X152230500Y-103037000D01*
X151990500Y-103037000D01*
G37*
G36*
X154490500Y-103037000D02*
X154490500Y-103437000D01*
X154730500Y-103437000D01*
X154730500Y-103037000D01*
X154490500Y-103037000D01*
G37*
G36*
X154990500Y-103037000D02*
X154990500Y-103437000D01*
X155230500Y-103437000D01*
X155230500Y-103037000D01*
X154990500Y-103037000D01*
G37*
G36*
X155490500Y-103037000D02*
X155490500Y-103437000D01*
X155730500Y-103437000D01*
X155730500Y-103037000D01*
X155490500Y-103037000D01*
G37*
G36*
X156040500Y-105587000D02*
X156040500Y-105987000D01*
X156280500Y-105987000D01*
X156280500Y-105587000D01*
X156040500Y-105587000D01*
G37*
G36*
X156040500Y-105087000D02*
X156040500Y-105487000D01*
X156280500Y-105487000D01*
X156280500Y-105087000D01*
X156040500Y-105087000D01*
G37*
G36*
X156040500Y-104587000D02*
X156040500Y-104987000D01*
X156280500Y-104987000D01*
X156280500Y-104587000D01*
X156040500Y-104587000D01*
G37*
G36*
X156040500Y-104087000D02*
X156040500Y-104487000D01*
X156280500Y-104487000D01*
X156280500Y-104087000D01*
X156040500Y-104087000D01*
G37*
G36*
X156040500Y-103587000D02*
X156040500Y-103987000D01*
X156280500Y-103987000D01*
X156280500Y-103587000D01*
X156040500Y-103587000D01*
G37*
G36*
X156040500Y-106087000D02*
X156040500Y-106487000D01*
X156280500Y-106487000D01*
X156280500Y-106087000D01*
X156040500Y-106087000D01*
G37*
G36*
X156040500Y-106587000D02*
X156040500Y-106987000D01*
X156280500Y-106987000D01*
X156280500Y-106587000D01*
X156040500Y-106587000D01*
G37*
G36*
X156040500Y-107087000D02*
X156040500Y-107487000D01*
X156280500Y-107487000D01*
X156280500Y-107087000D01*
X156040500Y-107087000D01*
G37*
G36*
X151440500Y-105087000D02*
X151440500Y-105487000D01*
X151680500Y-105487000D01*
X151680500Y-105087000D01*
X151440500Y-105087000D01*
G37*
G36*
X151440500Y-105587000D02*
X151440500Y-105987000D01*
X151680500Y-105987000D01*
X151680500Y-105587000D01*
X151440500Y-105587000D01*
G37*
G36*
X151440500Y-106087000D02*
X151440500Y-106487000D01*
X151680500Y-106487000D01*
X151680500Y-106087000D01*
X151440500Y-106087000D01*
G37*
G36*
X151440500Y-106587000D02*
X151440500Y-106987000D01*
X151680500Y-106987000D01*
X151680500Y-106587000D01*
X151440500Y-106587000D01*
G37*
G36*
X151440500Y-107087000D02*
X151440500Y-107487000D01*
X151680500Y-107487000D01*
X151680500Y-107087000D01*
X151440500Y-107087000D01*
G37*
G36*
X151440500Y-104587000D02*
X151440500Y-104987000D01*
X151680500Y-104987000D01*
X151680500Y-104587000D01*
X151440500Y-104587000D01*
G37*
G36*
X151440500Y-104087000D02*
X151440500Y-104487000D01*
X151680500Y-104487000D01*
X151680500Y-104087000D01*
X151440500Y-104087000D01*
G37*
G36*
X151440500Y-103587000D02*
X151440500Y-103987000D01*
X151680500Y-103987000D01*
X151680500Y-103587000D01*
X151440500Y-103587000D01*
G37*
G36*
X153490500Y-107637000D02*
X153490500Y-108037000D01*
X153730500Y-108037000D01*
X153730500Y-107637000D01*
X153490500Y-107637000D01*
G37*
G36*
X153990500Y-107637000D02*
X153990500Y-108037000D01*
X154230500Y-108037000D01*
X154230500Y-107637000D01*
X153990500Y-107637000D01*
G37*
G36*
X154490500Y-107637000D02*
X154490500Y-108037000D01*
X154730500Y-108037000D01*
X154730500Y-107637000D01*
X154490500Y-107637000D01*
G37*
G36*
X154990500Y-107637000D02*
X154990500Y-108037000D01*
X155230500Y-108037000D01*
X155230500Y-107637000D01*
X154990500Y-107637000D01*
G37*
G36*
X155490500Y-107637000D02*
X155490500Y-108037000D01*
X155730500Y-108037000D01*
X155730500Y-107637000D01*
X155490500Y-107637000D01*
G37*
G36*
X152990500Y-107637000D02*
X152990500Y-108037000D01*
X153230500Y-108037000D01*
X153230500Y-107637000D01*
X152990500Y-107637000D01*
G37*
G36*
X152490500Y-107637000D02*
X152490500Y-108037000D01*
X152730500Y-108037000D01*
X152730500Y-107637000D01*
X152490500Y-107637000D01*
G37*
G36*
X151990500Y-107637000D02*
X151990500Y-108037000D01*
X152230500Y-108037000D01*
X152230500Y-107637000D01*
X151990500Y-107637000D01*
G37*
D12*
X156252700Y-101464000D02*
X156252700Y-100974000D01*
X156700700Y-100974000D02*
X156700700Y-101464000D01*
D10*
G36*
X156781500Y-101773000D02*
X156781500Y-101473000D01*
X156181600Y-101473000D01*
X156181600Y-101773000D01*
X156781500Y-101773000D01*
G37*
G36*
X156781500Y-100960200D02*
X156781500Y-100660200D01*
X156181600Y-100660200D01*
X156181600Y-100960200D01*
X156781500Y-100960200D01*
G37*
D12*
X153255500Y-100854400D02*
X153255500Y-100364400D01*
X153703500Y-100364400D02*
X153703500Y-100854400D01*
D10*
G36*
X153784300Y-101163400D02*
X153784300Y-100863400D01*
X153184400Y-100863400D01*
X153184400Y-101163400D01*
X153784300Y-101163400D01*
G37*
G36*
X153784300Y-100350600D02*
X153784300Y-100050600D01*
X153184400Y-100050600D01*
X153184400Y-100350600D01*
X153784300Y-100350600D01*
G37*
D12*
X154474700Y-101489400D02*
X154474700Y-100999400D01*
X154922700Y-100999400D02*
X154922700Y-101489400D01*
D10*
G36*
X155003500Y-101798400D02*
X155003500Y-101498400D01*
X154403600Y-101498400D01*
X154403600Y-101798400D01*
X155003500Y-101798400D01*
G37*
G36*
X155003500Y-100985600D02*
X155003500Y-100685600D01*
X154403600Y-100685600D01*
X154403600Y-100985600D01*
X155003500Y-100985600D01*
G37*
D12*
X155389100Y-101464000D02*
X155389100Y-100974000D01*
X155837100Y-100974000D02*
X155837100Y-101464000D01*
D10*
G36*
X155917900Y-101773000D02*
X155917900Y-101473000D01*
X155318000Y-101473000D01*
X155318000Y-101773000D01*
X155917900Y-101773000D01*
G37*
G36*
X155917900Y-100960200D02*
X155917900Y-100660200D01*
X155318000Y-100660200D01*
X155318000Y-100960200D01*
X155917900Y-100960200D01*
G37*
D12*
X152620500Y-97958800D02*
X152620500Y-97468800D01*
X153068500Y-97468800D02*
X153068500Y-97958800D01*
D10*
G36*
X153149300Y-98267800D02*
X153149300Y-97967800D01*
X152549400Y-97967800D01*
X152549400Y-98267800D01*
X153149300Y-98267800D01*
G37*
G36*
X153149300Y-97455000D02*
X153149300Y-97155000D01*
X152549400Y-97155000D01*
X152549400Y-97455000D01*
X153149300Y-97455000D01*
G37*
G36*
X130973894Y-108958853D02*
X131173894Y-108958853D01*
X131173894Y-107908853D01*
X130973894Y-107908853D01*
X130973894Y-108958853D01*
G37*
G36*
X131473894Y-108958853D02*
X131673894Y-108958853D01*
X131673894Y-107908853D01*
X131473894Y-107908853D01*
X131473894Y-108958853D01*
G37*
G36*
X131973894Y-108958853D02*
X132173894Y-108958853D01*
X132173894Y-107908853D01*
X131973894Y-107908853D01*
X131973894Y-108958853D01*
G37*
G36*
X132473894Y-108958853D02*
X132673894Y-108958853D01*
X132673894Y-107908853D01*
X132473894Y-107908853D01*
X132473894Y-108958853D01*
G37*
G36*
X132973894Y-108958853D02*
X133173894Y-108958853D01*
X133173894Y-107908853D01*
X132973894Y-107908853D01*
X132973894Y-108958853D01*
G37*
G36*
X133473894Y-108958853D02*
X133673894Y-108958853D01*
X133673894Y-107908853D01*
X133473894Y-107908853D01*
X133473894Y-108958853D01*
G37*
G36*
X133973894Y-108958853D02*
X134173894Y-108958853D01*
X134173894Y-107908853D01*
X133973894Y-107908853D01*
X133973894Y-108958853D01*
G37*
G36*
X134473894Y-108958853D02*
X134673894Y-108958853D01*
X134673894Y-107908853D01*
X134473894Y-107908853D01*
X134473894Y-108958853D01*
G37*
G36*
X134973894Y-108958853D02*
X135173894Y-108958853D01*
X135173894Y-107908853D01*
X134973894Y-107908853D01*
X134973894Y-108958853D01*
G37*
G36*
X135473894Y-108958853D02*
X135673894Y-108958853D01*
X135673894Y-107908853D01*
X135473894Y-107908853D01*
X135473894Y-108958853D01*
G37*
G36*
X135973894Y-108958853D02*
X136173894Y-108958853D01*
X136173894Y-107908853D01*
X135973894Y-107908853D01*
X135973894Y-108958853D01*
G37*
G36*
X136473894Y-108958853D02*
X136673894Y-108958853D01*
X136673894Y-107908853D01*
X136473894Y-107908853D01*
X136473894Y-108958853D01*
G37*
G36*
X137273894Y-107308853D02*
X138323894Y-107308853D01*
X138323894Y-107108853D01*
X137273894Y-107108853D01*
X137273894Y-107308853D01*
G37*
G36*
X137273894Y-106808853D02*
X138323894Y-106808853D01*
X138323894Y-106608853D01*
X137273894Y-106608853D01*
X137273894Y-106808853D01*
G37*
G36*
X137273894Y-106308853D02*
X138323894Y-106308853D01*
X138323894Y-106108853D01*
X137273894Y-106108853D01*
X137273894Y-106308853D01*
G37*
G36*
X137273894Y-105808853D02*
X138323894Y-105808853D01*
X138323894Y-105608853D01*
X137273894Y-105608853D01*
X137273894Y-105808853D01*
G37*
G36*
X137273894Y-105308853D02*
X138323894Y-105308853D01*
X138323894Y-105108853D01*
X137273894Y-105108853D01*
X137273894Y-105308853D01*
G37*
G36*
X137273894Y-104808853D02*
X138323894Y-104808853D01*
X138323894Y-104608853D01*
X137273894Y-104608853D01*
X137273894Y-104808853D01*
G37*
G36*
X137273894Y-104308853D02*
X138323894Y-104308853D01*
X138323894Y-104108853D01*
X137273894Y-104108853D01*
X137273894Y-104308853D01*
G37*
G36*
X137273894Y-103808853D02*
X138323894Y-103808853D01*
X138323894Y-103608853D01*
X137273894Y-103608853D01*
X137273894Y-103808853D01*
G37*
G36*
X137273894Y-103308853D02*
X138323894Y-103308853D01*
X138323894Y-103108853D01*
X137273894Y-103108853D01*
X137273894Y-103308853D01*
G37*
G36*
X137273894Y-102808853D02*
X138323894Y-102808853D01*
X138323894Y-102608853D01*
X137273894Y-102608853D01*
X137273894Y-102808853D01*
G37*
G36*
X137273894Y-102308853D02*
X138323894Y-102308853D01*
X138323894Y-102108853D01*
X137273894Y-102108853D01*
X137273894Y-102308853D01*
G37*
G36*
X137273894Y-101808853D02*
X138323894Y-101808853D01*
X138323894Y-101608853D01*
X137273894Y-101608853D01*
X137273894Y-101808853D01*
G37*
G36*
X136473894Y-101008853D02*
X136673894Y-101008853D01*
X136673894Y-99958853D01*
X136473894Y-99958853D01*
X136473894Y-101008853D01*
G37*
G36*
X135973894Y-101008853D02*
X136173894Y-101008853D01*
X136173894Y-99958853D01*
X135973894Y-99958853D01*
X135973894Y-101008853D01*
G37*
G36*
X135473894Y-101008853D02*
X135673894Y-101008853D01*
X135673894Y-99958853D01*
X135473894Y-99958853D01*
X135473894Y-101008853D01*
G37*
G36*
X134973894Y-101008853D02*
X135173894Y-101008853D01*
X135173894Y-99958853D01*
X134973894Y-99958853D01*
X134973894Y-101008853D01*
G37*
G36*
X134473894Y-101008853D02*
X134673894Y-101008853D01*
X134673894Y-99958853D01*
X134473894Y-99958853D01*
X134473894Y-101008853D01*
G37*
G36*
X133973894Y-101008853D02*
X134173894Y-101008853D01*
X134173894Y-99958853D01*
X133973894Y-99958853D01*
X133973894Y-101008853D01*
G37*
G36*
X133473894Y-101008853D02*
X133673894Y-101008853D01*
X133673894Y-99958853D01*
X133473894Y-99958853D01*
X133473894Y-101008853D01*
G37*
G36*
X132973894Y-101008853D02*
X133173894Y-101008853D01*
X133173894Y-99958853D01*
X132973894Y-99958853D01*
X132973894Y-101008853D01*
G37*
G36*
X132473894Y-101008853D02*
X132673894Y-101008853D01*
X132673894Y-99958853D01*
X132473894Y-99958853D01*
X132473894Y-101008853D01*
G37*
G36*
X131973894Y-101008853D02*
X132173894Y-101008853D01*
X132173894Y-99958853D01*
X131973894Y-99958853D01*
X131973894Y-101008853D01*
G37*
G36*
X131473894Y-101008853D02*
X131673894Y-101008853D01*
X131673894Y-99958853D01*
X131473894Y-99958853D01*
X131473894Y-101008853D01*
G37*
G36*
X130973894Y-101008853D02*
X131173894Y-101008853D01*
X131173894Y-99958853D01*
X130973894Y-99958853D01*
X130973894Y-101008853D01*
G37*
G36*
X129323894Y-101808853D02*
X130373894Y-101808853D01*
X130373894Y-101608853D01*
X129323894Y-101608853D01*
X129323894Y-101808853D01*
G37*
G36*
X129323894Y-102308853D02*
X130373894Y-102308853D01*
X130373894Y-102108853D01*
X129323894Y-102108853D01*
X129323894Y-102308853D01*
G37*
G36*
X129323894Y-102808853D02*
X130373894Y-102808853D01*
X130373894Y-102608853D01*
X129323894Y-102608853D01*
X129323894Y-102808853D01*
G37*
G36*
X129323894Y-103308853D02*
X130373894Y-103308853D01*
X130373894Y-103108853D01*
X129323894Y-103108853D01*
X129323894Y-103308853D01*
G37*
G36*
X129323894Y-103808853D02*
X130373894Y-103808853D01*
X130373894Y-103608853D01*
X129323894Y-103608853D01*
X129323894Y-103808853D01*
G37*
G36*
X129323894Y-104308853D02*
X130373894Y-104308853D01*
X130373894Y-104108853D01*
X129323894Y-104108853D01*
X129323894Y-104308853D01*
G37*
G36*
X129323894Y-104808853D02*
X130373894Y-104808853D01*
X130373894Y-104608853D01*
X129323894Y-104608853D01*
X129323894Y-104808853D01*
G37*
G36*
X129323894Y-105308853D02*
X130373894Y-105308853D01*
X130373894Y-105108853D01*
X129323894Y-105108853D01*
X129323894Y-105308853D01*
G37*
G36*
X129323894Y-105808853D02*
X130373894Y-105808853D01*
X130373894Y-105608853D01*
X129323894Y-105608853D01*
X129323894Y-105808853D01*
G37*
G36*
X129323894Y-106308853D02*
X130373894Y-106308853D01*
X130373894Y-106108853D01*
X129323894Y-106108853D01*
X129323894Y-106308853D01*
G37*
G36*
X129323894Y-106808853D02*
X130373894Y-106808853D01*
X130373894Y-106608853D01*
X129323894Y-106608853D01*
X129323894Y-106808853D01*
G37*
G36*
X129323894Y-107308853D02*
X130373894Y-107308853D01*
X130373894Y-107108853D01*
X129323894Y-107108853D01*
X129323894Y-107308853D01*
G37*
D12*
X129040100Y-108695600D02*
X129040100Y-109185600D01*
X128592100Y-109185600D02*
X128592100Y-108695600D01*
D10*
G36*
X128511300Y-108386600D02*
X128511300Y-108686600D01*
X129111200Y-108686600D01*
X129111200Y-108386600D01*
X128511300Y-108386600D01*
G37*
G36*
X128511300Y-109199400D02*
X128511300Y-109499400D01*
X129111200Y-109499400D01*
X129111200Y-109199400D01*
X128511300Y-109199400D01*
G37*
D12*
X127029100Y-103195600D02*
X126539100Y-103195600D01*
X126539100Y-102747600D02*
X127029100Y-102747600D01*
D10*
G36*
X127338100Y-102666800D02*
X127038100Y-102666800D01*
X127038100Y-103266700D01*
X127338100Y-103266700D01*
X127338100Y-102666800D01*
G37*
G36*
X126525300Y-102666800D02*
X126225300Y-102666800D01*
X126225300Y-103266700D01*
X126525300Y-103266700D01*
X126525300Y-102666800D01*
G37*
D12*
X140969047Y-104914441D02*
X141459047Y-104914441D01*
X141459047Y-105362441D02*
X140969047Y-105362441D01*
D10*
G36*
X140660047Y-105443241D02*
X140960047Y-105443241D01*
X140960047Y-104843341D01*
X140660047Y-104843341D01*
X140660047Y-105443241D01*
G37*
G36*
X141472847Y-105443241D02*
X141772847Y-105443241D01*
X141772847Y-104843341D01*
X141472847Y-104843341D01*
X141472847Y-105443241D01*
G37*
D12*
X136660100Y-112759600D02*
X136660100Y-113249600D01*
X136212100Y-113249600D02*
X136212100Y-112759600D01*
D10*
G36*
X136131300Y-112450600D02*
X136131300Y-112750600D01*
X136731200Y-112750600D01*
X136731200Y-112450600D01*
X136131300Y-112450600D01*
G37*
G36*
X136131300Y-113263400D02*
X136131300Y-113563400D01*
X136731200Y-113563400D01*
X136731200Y-113263400D01*
X136131300Y-113263400D01*
G37*
D12*
X134688100Y-113249600D02*
X134688100Y-112759600D01*
X135136100Y-112759600D02*
X135136100Y-113249600D01*
D10*
G36*
X135216900Y-113558600D02*
X135216900Y-113258600D01*
X134617000Y-113258600D01*
X134617000Y-113558600D01*
X135216900Y-113558600D01*
G37*
G36*
X135216900Y-112745800D02*
X135216900Y-112445800D01*
X134617000Y-112445800D01*
X134617000Y-112745800D01*
X135216900Y-112745800D01*
G37*
D12*
X128042288Y-108695600D02*
X128042288Y-109185600D01*
X127594288Y-109185600D02*
X127594288Y-108695600D01*
D10*
G36*
X127513488Y-108386600D02*
X127513488Y-108686600D01*
X128113388Y-108686600D01*
X128113388Y-108386600D01*
X127513488Y-108386600D01*
G37*
G36*
X127513488Y-109199400D02*
X127513488Y-109499400D01*
X128113388Y-109499400D01*
X128113388Y-109199400D01*
X127513488Y-109199400D01*
G37*
D12*
X128952100Y-110875600D02*
X129442100Y-110875600D01*
X129442100Y-111323600D02*
X128952100Y-111323600D01*
D10*
G36*
X128643100Y-111404400D02*
X128943100Y-111404400D01*
X128943100Y-110804500D01*
X128643100Y-110804500D01*
X128643100Y-111404400D01*
G37*
G36*
X129455900Y-111404400D02*
X129755900Y-111404400D01*
X129755900Y-110804500D01*
X129455900Y-110804500D01*
X129455900Y-111404400D01*
G37*
D12*
X137676100Y-112759600D02*
X137676100Y-113249600D01*
X137228100Y-113249600D02*
X137228100Y-112759600D01*
D10*
G36*
X137147300Y-112450600D02*
X137147300Y-112750600D01*
X137747200Y-112750600D01*
X137747200Y-112450600D01*
X137147300Y-112450600D01*
G37*
G36*
X137147300Y-113263400D02*
X137147300Y-113563400D01*
X137747200Y-113563400D01*
X137747200Y-113263400D01*
X137147300Y-113263400D01*
G37*
D12*
X134120100Y-112759600D02*
X134120100Y-113249600D01*
X133672100Y-113249600D02*
X133672100Y-112759600D01*
D10*
G36*
X133591300Y-112450600D02*
X133591300Y-112750600D01*
X134191200Y-112750600D01*
X134191200Y-112450600D01*
X133591300Y-112450600D01*
G37*
G36*
X133591300Y-113263400D02*
X133591300Y-113563400D01*
X134191200Y-113563400D01*
X134191200Y-113263400D01*
X133591300Y-113263400D01*
G37*
D12*
X141256469Y-109040425D02*
X140766469Y-109040425D01*
X140766469Y-108592425D02*
X141256469Y-108592425D01*
D10*
G36*
X141565469Y-108511625D02*
X141265469Y-108511625D01*
X141265469Y-109111525D01*
X141565469Y-109111525D01*
X141565469Y-108511625D01*
G37*
G36*
X140752669Y-108511625D02*
X140452669Y-108511625D01*
X140452669Y-109111525D01*
X140752669Y-109111525D01*
X140752669Y-108511625D01*
G37*
D12*
X123754806Y-105831478D02*
X124244806Y-105831478D01*
X124244806Y-106279478D02*
X123754806Y-106279478D01*
D10*
G36*
X123445806Y-106360278D02*
X123745806Y-106360278D01*
X123745806Y-105760378D01*
X123445806Y-105760378D01*
X123445806Y-106360278D01*
G37*
G36*
X124258606Y-106360278D02*
X124558606Y-106360278D01*
X124558606Y-105760378D01*
X124258606Y-105760378D01*
X124258606Y-106360278D01*
G37*
D12*
X124632247Y-111339725D02*
X125122247Y-111339725D01*
X125122247Y-111787725D02*
X124632247Y-111787725D01*
D10*
G36*
X124323247Y-111868525D02*
X124623247Y-111868525D01*
X124623247Y-111268625D01*
X124323247Y-111268625D01*
X124323247Y-111868525D01*
G37*
G36*
X125136047Y-111868525D02*
X125436047Y-111868525D01*
X125436047Y-111268625D01*
X125136047Y-111268625D01*
X125136047Y-111868525D01*
G37*
D12*
X122983100Y-103509600D02*
X123473100Y-103509600D01*
X123473100Y-103957600D02*
X122983100Y-103957600D01*
D10*
G36*
X122674100Y-104038400D02*
X122974100Y-104038400D01*
X122974100Y-103438500D01*
X122674100Y-103438500D01*
X122674100Y-104038400D01*
G37*
G36*
X123486900Y-104038400D02*
X123786900Y-104038400D01*
X123786900Y-103438500D01*
X123486900Y-103438500D01*
X123486900Y-104038400D01*
G37*
D12*
X122983100Y-104398600D02*
X123473100Y-104398600D01*
X123473100Y-104846600D02*
X122983100Y-104846600D01*
D10*
G36*
X122674100Y-104927400D02*
X122974100Y-104927400D01*
X122974100Y-104327500D01*
X122674100Y-104327500D01*
X122674100Y-104927400D01*
G37*
G36*
X123486900Y-104927400D02*
X123786900Y-104927400D01*
X123786900Y-104327500D01*
X123486900Y-104327500D01*
X123486900Y-104927400D01*
G37*
D13*
X123516759Y-110681328D02*
X126056759Y-110681328D01*
X126056759Y-110681328D02*
X126056759Y-106871328D01*
X126056759Y-106871328D02*
X123516759Y-106871328D01*
X123516759Y-106871328D02*
X123516759Y-110681328D01*
D12*
X119288100Y-97345600D02*
X122088100Y-97345600D01*
X122088100Y-98945600D02*
X119288100Y-98945600D01*
X119288100Y-98945600D02*
X119288100Y-97345600D01*
X122088100Y-98945600D02*
X122088100Y-97345600D01*
D10*
G36*
X121888100Y-96645600D02*
X121388100Y-96645600D01*
X121388100Y-97295600D01*
X121888100Y-97295600D01*
X121888100Y-96645600D01*
G37*
G36*
X120938100Y-96645600D02*
X120438100Y-96645600D01*
X120438100Y-97295600D01*
X120938100Y-97295600D01*
X120938100Y-96645600D01*
G37*
G36*
X119988100Y-96645600D02*
X119488100Y-96645600D01*
X119488100Y-97295600D01*
X119988100Y-97295600D01*
X119988100Y-96645600D01*
G37*
G36*
X119988100Y-98995600D02*
X119488100Y-98995600D01*
X119488100Y-99645600D01*
X119988100Y-99645600D01*
X119988100Y-98995600D01*
G37*
G36*
X121888100Y-98995600D02*
X121388100Y-98995600D01*
X121388100Y-99645600D01*
X121888100Y-99645600D01*
X121888100Y-98995600D01*
G37*
D14*
X121044100Y-102387600D02*
X120332100Y-102387600D01*
X121044100Y-101536600D02*
X120332100Y-101536600D01*
D10*
G36*
X121526300Y-101485700D02*
X121026200Y-101485700D01*
X121026200Y-102435700D01*
X121526300Y-102435700D01*
X121526300Y-101485700D01*
G37*
G36*
X120357900Y-101485700D02*
X119857800Y-101485700D01*
X119857800Y-102435700D01*
X120357900Y-102435700D01*
X120357900Y-101485700D01*
G37*
D13*
X121196100Y-101447600D02*
X120434100Y-102463600D01*
X120434100Y-102463600D02*
X120053100Y-102463600D01*
X116132100Y-98770600D02*
X116132100Y-97520600D01*
X116132100Y-97520600D02*
X118132100Y-97520600D01*
X118132100Y-97520600D02*
X118132100Y-98770600D01*
X118132100Y-98770600D02*
X116132100Y-98770600D01*
D10*
G36*
X116132100Y-98770600D02*
X116612100Y-98770600D01*
X116612100Y-97520600D01*
X116132100Y-97520600D01*
X116132100Y-98770600D01*
G37*
G36*
X117652100Y-98770600D02*
X118132100Y-98770600D01*
X118132100Y-97520600D01*
X117652100Y-97520600D01*
X117652100Y-98770600D01*
G37*
D13*
X124107100Y-100923600D02*
X122857100Y-100923600D01*
X122857100Y-100923600D02*
X122857100Y-98923600D01*
X122857100Y-98923600D02*
X124107100Y-98923600D01*
X124107100Y-98923600D02*
X124107100Y-100923600D01*
D10*
G36*
X124107100Y-100923600D02*
X124107100Y-100443600D01*
X122857100Y-100443600D01*
X122857100Y-100923600D01*
X124107100Y-100923600D01*
G37*
G36*
X124107100Y-99403600D02*
X124107100Y-98923600D01*
X122857100Y-98923600D01*
X122857100Y-99403600D01*
X124107100Y-99403600D01*
G37*
D12*
X141253100Y-110307600D02*
X140763100Y-110307600D01*
X140763100Y-109859600D02*
X141253100Y-109859600D01*
D10*
G36*
X141562100Y-109778800D02*
X141262100Y-109778800D01*
X141262100Y-110378700D01*
X141562100Y-110378700D01*
X141562100Y-109778800D01*
G37*
G36*
X140749300Y-109778800D02*
X140449300Y-109778800D01*
X140449300Y-110378700D01*
X140749300Y-110378700D01*
X140749300Y-109778800D01*
G37*
D12*
X144555100Y-100909600D02*
X144065100Y-100909600D01*
X144065100Y-100461600D02*
X144555100Y-100461600D01*
D10*
G36*
X144864100Y-100380800D02*
X144564100Y-100380800D01*
X144564100Y-100980700D01*
X144864100Y-100980700D01*
X144864100Y-100380800D01*
G37*
G36*
X144051300Y-100380800D02*
X143751300Y-100380800D01*
X143751300Y-100980700D01*
X144051300Y-100980700D01*
X144051300Y-100380800D01*
G37*
D12*
X141253100Y-107894600D02*
X140763100Y-107894600D01*
X140763100Y-107446600D02*
X141253100Y-107446600D01*
D10*
G36*
X141562100Y-107365800D02*
X141262100Y-107365800D01*
X141262100Y-107965700D01*
X141562100Y-107965700D01*
X141562100Y-107365800D01*
G37*
G36*
X140749300Y-107365800D02*
X140449300Y-107365800D01*
X140449300Y-107965700D01*
X140749300Y-107965700D01*
X140749300Y-107365800D01*
G37*
D13*
X142405100Y-99669600D02*
X142405100Y-110337600D01*
X142405100Y-110337600D02*
X131737100Y-110337600D01*
X131737100Y-110337600D02*
X131737100Y-99669600D01*
X131737100Y-99669600D02*
X142405100Y-99669600D01*
X143065500Y-105003600D02*
G75*
G03X143065500Y-105003600I-5994400J0D01*
G01*
X117894100Y-110337600D02*
X117894100Y-99669600D01*
X117894100Y-99669600D02*
X128562100Y-99669600D01*
X128562100Y-99669600D02*
X128562100Y-110337600D01*
X128562100Y-110337600D02*
X117894100Y-110337600D01*
X129222500Y-105003600D02*
G75*
G03X129222500Y-105003600I-5994400J0D01*
G01*
D12*
X123592700Y-96465616D02*
X124082700Y-96465616D01*
X124082700Y-96913616D02*
X123592700Y-96913616D01*
D10*
G36*
X123283700Y-96994416D02*
X123583700Y-96994416D01*
X123583700Y-96394516D01*
X123283700Y-96394516D01*
X123283700Y-96994416D01*
G37*
G36*
X124096500Y-96994416D02*
X124396500Y-96994416D01*
X124396500Y-96394516D01*
X124096500Y-96394516D01*
X124096500Y-96994416D01*
G37*
D12*
X123592700Y-97349509D02*
X124082700Y-97349509D01*
X124082700Y-97797509D02*
X123592700Y-97797509D01*
D10*
G36*
X123283700Y-97878309D02*
X123583700Y-97878309D01*
X123583700Y-97278409D01*
X123283700Y-97278409D01*
X123283700Y-97878309D01*
G37*
G36*
X124096500Y-97878309D02*
X124396500Y-97878309D01*
X124396500Y-97278409D01*
X124096500Y-97278409D01*
X124096500Y-97878309D01*
G37*
D12*
X128671513Y-113199097D02*
X128671513Y-112709097D01*
X129119513Y-112709097D02*
X129119513Y-113199097D01*
D10*
G36*
X129200313Y-113508097D02*
X129200313Y-113208097D01*
X128600413Y-113208097D01*
X128600413Y-113508097D01*
X129200313Y-113508097D01*
G37*
G36*
X129200313Y-112695297D02*
X129200313Y-112395297D01*
X128600413Y-112395297D01*
X128600413Y-112695297D01*
X129200313Y-112695297D01*
G37*
D12*
X123473100Y-102941600D02*
X122983100Y-102941600D01*
X122983100Y-102493600D02*
X123473100Y-102493600D01*
D10*
G36*
X123782100Y-102412800D02*
X123482100Y-102412800D01*
X123482100Y-103012700D01*
X123782100Y-103012700D01*
X123782100Y-102412800D01*
G37*
G36*
X122969300Y-102412800D02*
X122669300Y-102412800D01*
X122669300Y-103012700D01*
X122969300Y-103012700D01*
X122969300Y-102412800D01*
G37*
D13*
X157629700Y-105553000D02*
X158879700Y-105553000D01*
X158879700Y-105553000D02*
X158879700Y-107553000D01*
X158879700Y-107553000D02*
X157629700Y-107553000D01*
X157629700Y-107553000D02*
X157629700Y-105553000D01*
D12*
X117449300Y-110489800D02*
X117939300Y-110489800D01*
X117939300Y-110937800D02*
X117449300Y-110937800D01*
D10*
G36*
X117140300Y-111018600D02*
X117440300Y-111018600D01*
X117440300Y-110418700D01*
X117140300Y-110418700D01*
X117140300Y-111018600D01*
G37*
G36*
X117953100Y-111018600D02*
X118253100Y-111018600D01*
X118253100Y-110418700D01*
X117953100Y-110418700D01*
X117953100Y-111018600D01*
G37*
D12*
X122342100Y-110883600D02*
X119542100Y-110883600D01*
X119542100Y-109283600D02*
X122342100Y-109283600D01*
X122342100Y-109283600D02*
X122342100Y-110883600D01*
X119542100Y-109283600D02*
X119542100Y-110883600D01*
D10*
G36*
X119742100Y-111583600D02*
X120242100Y-111583600D01*
X120242100Y-110933600D01*
X119742100Y-110933600D01*
X119742100Y-111583600D01*
G37*
G36*
X120692100Y-111583600D02*
X121192100Y-111583600D01*
X121192100Y-110933600D01*
X120692100Y-110933600D01*
X120692100Y-111583600D01*
G37*
G36*
X121642100Y-111583600D02*
X122142100Y-111583600D01*
X122142100Y-110933600D01*
X121642100Y-110933600D01*
X121642100Y-111583600D01*
G37*
G36*
X121642100Y-109233600D02*
X122142100Y-109233600D01*
X122142100Y-108583600D01*
X121642100Y-108583600D01*
X121642100Y-109233600D01*
G37*
G36*
X119742100Y-109233600D02*
X120242100Y-109233600D01*
X120242100Y-108583600D01*
X119742100Y-108583600D01*
X119742100Y-109233600D01*
G37*
D12*
X117932700Y-109924800D02*
X117442700Y-109924800D01*
X117442700Y-109476800D02*
X117932700Y-109476800D01*
D10*
G36*
X118241700Y-109396000D02*
X117941700Y-109396000D01*
X117941700Y-109995900D01*
X118241700Y-109995900D01*
X118241700Y-109396000D01*
G37*
G36*
X117428900Y-109396000D02*
X117128900Y-109396000D01*
X117128900Y-109995900D01*
X117428900Y-109995900D01*
X117428900Y-109396000D01*
G37*
D12*
X131728100Y-113787400D02*
X131238100Y-113787400D01*
X131238100Y-113339400D02*
X131728100Y-113339400D01*
D10*
G36*
X132037100Y-113258600D02*
X131737100Y-113258600D01*
X131737100Y-113858500D01*
X132037100Y-113858500D01*
X132037100Y-113258600D01*
G37*
G36*
X131224300Y-113258600D02*
X130924300Y-113258600D01*
X130924300Y-113858500D01*
X131224300Y-113858500D01*
X131224300Y-113258600D01*
G37*
D12*
X131238100Y-112399600D02*
X131728100Y-112399600D01*
X131728100Y-112847600D02*
X131238100Y-112847600D01*
D10*
G36*
X130929100Y-112928400D02*
X131229100Y-112928400D01*
X131229100Y-112328500D01*
X130929100Y-112328500D01*
X130929100Y-112928400D01*
G37*
G36*
X131741900Y-112928400D02*
X132041900Y-112928400D01*
X132041900Y-112328500D01*
X131741900Y-112328500D01*
X131741900Y-112928400D01*
G37*
G36*
X150152100Y-93319600D02*
X149644100Y-93319600D01*
X149644100Y-93827600D01*
X150152100Y-93827600D01*
X150152100Y-93319600D01*
G37*
G36*
X152692100Y-93319600D02*
X152184100Y-93319600D01*
X152184100Y-93827600D01*
X152692100Y-93827600D01*
X152692100Y-93319600D01*
G37*
G36*
X155232100Y-93319600D02*
X154724100Y-93319600D01*
X154724100Y-93827600D01*
X155232100Y-93827600D01*
X155232100Y-93319600D01*
G37*
G36*
X157772100Y-93319600D02*
X157264100Y-93319600D01*
X157264100Y-93827600D01*
X157772100Y-93827600D01*
X157772100Y-93319600D01*
G37*
G36*
X160312100Y-93319600D02*
X159804100Y-93319600D01*
X159804100Y-93827600D01*
X160312100Y-93827600D01*
X160312100Y-93319600D01*
G37*
G36*
X162852100Y-93319600D02*
X162344100Y-93319600D01*
X162344100Y-93827600D01*
X162852100Y-93827600D01*
X162852100Y-93319600D01*
G37*
G36*
X165392100Y-93319600D02*
X164884100Y-93319600D01*
X164884100Y-93827600D01*
X165392100Y-93827600D01*
X165392100Y-93319600D01*
G37*
G36*
X132372100Y-93319600D02*
X131864100Y-93319600D01*
X131864100Y-93827600D01*
X132372100Y-93827600D01*
X132372100Y-93319600D01*
G37*
G36*
X134912100Y-93319600D02*
X134404100Y-93319600D01*
X134404100Y-93827600D01*
X134912100Y-93827600D01*
X134912100Y-93319600D01*
G37*
G36*
X137452100Y-93319600D02*
X136944100Y-93319600D01*
X136944100Y-93827600D01*
X137452100Y-93827600D01*
X137452100Y-93319600D01*
G37*
G36*
X139992100Y-93319600D02*
X139484100Y-93319600D01*
X139484100Y-93827600D01*
X139992100Y-93827600D01*
X139992100Y-93319600D01*
G37*
G36*
X142532100Y-93319600D02*
X142024100Y-93319600D01*
X142024100Y-93827600D01*
X142532100Y-93827600D01*
X142532100Y-93319600D01*
G37*
G36*
X145072100Y-93319600D02*
X144564100Y-93319600D01*
X144564100Y-93827600D01*
X145072100Y-93827600D01*
X145072100Y-93319600D01*
G37*
G36*
X147612100Y-93319600D02*
X147104100Y-93319600D01*
X147104100Y-93827600D01*
X147612100Y-93827600D01*
X147612100Y-93319600D01*
G37*
G36*
X129832100Y-93319600D02*
X129324100Y-93319600D01*
X129324100Y-93827600D01*
X129832100Y-93827600D01*
X129832100Y-93319600D01*
G37*
G36*
X127292100Y-93319600D02*
X126784100Y-93319600D01*
X126784100Y-93827600D01*
X127292100Y-93827600D01*
X127292100Y-93319600D01*
G37*
G36*
X124752100Y-93319600D02*
X124244100Y-93319600D01*
X124244100Y-93827600D01*
X124752100Y-93827600D01*
X124752100Y-93319600D01*
G37*
G36*
X122212100Y-93319600D02*
X121704100Y-93319600D01*
X121704100Y-93827600D01*
X122212100Y-93827600D01*
X122212100Y-93319600D01*
G37*
G36*
X119672100Y-93319600D02*
X119164100Y-93319600D01*
X119164100Y-93827600D01*
X119672100Y-93827600D01*
X119672100Y-93319600D01*
G37*
G36*
X117132100Y-93319600D02*
X116624100Y-93319600D01*
X116624100Y-93827600D01*
X117132100Y-93827600D01*
X117132100Y-93319600D01*
G37*
D12*
X166438100Y-96866600D02*
X166438100Y-96376600D01*
X166886100Y-96376600D02*
X166886100Y-96866600D01*
D10*
G36*
X166966900Y-97175600D02*
X166966900Y-96875600D01*
X166367000Y-96875600D01*
X166367000Y-97175600D01*
X166966900Y-97175600D01*
G37*
G36*
X166966900Y-96362800D02*
X166966900Y-96062800D01*
X166367000Y-96062800D01*
X166367000Y-96362800D01*
X166966900Y-96362800D01*
G37*
D12*
X162720500Y-106773600D02*
X162720500Y-107263600D01*
X162272500Y-107263600D02*
X162272500Y-106773600D01*
D10*
G36*
X162191700Y-106464600D02*
X162191700Y-106764600D01*
X162791600Y-106764600D01*
X162791600Y-106464600D01*
X162191700Y-106464600D01*
G37*
G36*
X162191700Y-107277400D02*
X162191700Y-107577400D01*
X162791600Y-107577400D01*
X162791600Y-107277400D01*
X162191700Y-107277400D01*
G37*
D12*
X162272500Y-106278600D02*
X162272500Y-105788600D01*
X162720500Y-105788600D02*
X162720500Y-106278600D01*
D10*
G36*
X162801300Y-106587600D02*
X162801300Y-106287600D01*
X162201400Y-106287600D01*
X162201400Y-106587600D01*
X162801300Y-106587600D01*
G37*
G36*
X162801300Y-105774800D02*
X162801300Y-105474800D01*
X162201400Y-105474800D01*
X162201400Y-105774800D01*
X162801300Y-105774800D01*
G37*
D12*
X169934100Y-96376600D02*
X169934100Y-96866600D01*
X169486100Y-96866600D02*
X169486100Y-96376600D01*
D10*
G36*
X169405300Y-96067600D02*
X169405300Y-96367600D01*
X170005200Y-96367600D01*
X170005200Y-96067600D01*
X169405300Y-96067600D01*
G37*
G36*
X169405300Y-96880400D02*
X169405300Y-97180400D01*
X170005200Y-97180400D01*
X170005200Y-96880400D01*
X169405300Y-96880400D01*
G37*
D12*
X167941100Y-95889600D02*
X168431100Y-95889600D01*
X168431100Y-96337600D02*
X167941100Y-96337600D01*
D10*
G36*
X167632100Y-96418400D02*
X167932100Y-96418400D01*
X167932100Y-95818500D01*
X167632100Y-95818500D01*
X167632100Y-96418400D01*
G37*
G36*
X168444900Y-96418400D02*
X168744900Y-96418400D01*
X168744900Y-95818500D01*
X168444900Y-95818500D01*
X168444900Y-96418400D01*
G37*
D15*
X147361100Y-103403600D02*
X146961100Y-103403600D01*
X146961100Y-103403600D02*
X144961100Y-103403600D01*
X144961100Y-103403600D02*
X144561100Y-103403600D01*
X144561100Y-103403600D02*
X144561100Y-106603600D01*
X144561100Y-106603600D02*
X144861100Y-106603600D01*
X144861100Y-106603600D02*
X146961100Y-106603600D01*
X146961100Y-106603600D02*
X147361100Y-106603600D01*
D14*
X146961100Y-106603600D02*
X146961100Y-106803600D01*
X146961100Y-106803600D02*
X146461100Y-106803600D01*
X146461100Y-106803600D02*
X146461100Y-106653600D01*
X145461100Y-106653600D02*
X145461100Y-106803600D01*
X145461100Y-106803600D02*
X144861100Y-106803600D01*
X144861100Y-106803600D02*
X144861100Y-106603600D01*
X146961100Y-103403600D02*
X146961100Y-103203600D01*
X146961100Y-103203600D02*
X146461100Y-103203600D01*
X146461100Y-103203600D02*
X146461100Y-103353600D01*
X145461100Y-103353600D02*
X145461100Y-103203600D01*
X145461100Y-103203600D02*
X144961100Y-103203600D01*
X144961100Y-103203600D02*
X144961100Y-103403600D01*
D15*
X147361100Y-106603600D02*
X147361100Y-103403600D01*
X147061100Y-105003600D02*
G75*
G03X147061100Y-105003600I-1100000J0D01*
G01*
D13*
X147161100Y-106303600D02*
X147161100Y-106403600D01*
X147161100Y-106403600D02*
X146961100Y-106403600D01*
X146961100Y-106403600D02*
X146961100Y-106203600D01*
X146961100Y-106203600D02*
X147161100Y-106203600D01*
X147161100Y-106203600D02*
X147161100Y-106303600D01*
X147161100Y-106303600D02*
X147061100Y-106303600D01*
D10*
G36*
X131864100Y-116687600D02*
X132372100Y-116687600D01*
X132372100Y-116179600D01*
X131864100Y-116179600D01*
X131864100Y-116687600D01*
G37*
G36*
X129324100Y-116687600D02*
X129832100Y-116687600D01*
X129832100Y-116179600D01*
X129324100Y-116179600D01*
X129324100Y-116687600D01*
G37*
G36*
X126784100Y-116687600D02*
X127292100Y-116687600D01*
X127292100Y-116179600D01*
X126784100Y-116179600D01*
X126784100Y-116687600D01*
G37*
G36*
X124244100Y-116687600D02*
X124752100Y-116687600D01*
X124752100Y-116179600D01*
X124244100Y-116179600D01*
X124244100Y-116687600D01*
G37*
G36*
X121704100Y-116687600D02*
X122212100Y-116687600D01*
X122212100Y-116179600D01*
X121704100Y-116179600D01*
X121704100Y-116687600D01*
G37*
G36*
X119164100Y-116687600D02*
X119672100Y-116687600D01*
X119672100Y-116179600D01*
X119164100Y-116179600D01*
X119164100Y-116687600D01*
G37*
G36*
X116624100Y-116687600D02*
X117132100Y-116687600D01*
X117132100Y-116179600D01*
X116624100Y-116179600D01*
X116624100Y-116687600D01*
G37*
G36*
X149644100Y-116687600D02*
X150152100Y-116687600D01*
X150152100Y-116179600D01*
X149644100Y-116179600D01*
X149644100Y-116687600D01*
G37*
G36*
X147104100Y-116687600D02*
X147612100Y-116687600D01*
X147612100Y-116179600D01*
X147104100Y-116179600D01*
X147104100Y-116687600D01*
G37*
G36*
X144564100Y-116687600D02*
X145072100Y-116687600D01*
X145072100Y-116179600D01*
X144564100Y-116179600D01*
X144564100Y-116687600D01*
G37*
G36*
X142024100Y-116687600D02*
X142532100Y-116687600D01*
X142532100Y-116179600D01*
X142024100Y-116179600D01*
X142024100Y-116687600D01*
G37*
G36*
X139484100Y-116687600D02*
X139992100Y-116687600D01*
X139992100Y-116179600D01*
X139484100Y-116179600D01*
X139484100Y-116687600D01*
G37*
G36*
X136944100Y-116687600D02*
X137452100Y-116687600D01*
X137452100Y-116179600D01*
X136944100Y-116179600D01*
X136944100Y-116687600D01*
G37*
G36*
X134404100Y-116687600D02*
X134912100Y-116687600D01*
X134912100Y-116179600D01*
X134404100Y-116179600D01*
X134404100Y-116687600D01*
G37*
G36*
X152184100Y-116687600D02*
X152692100Y-116687600D01*
X152692100Y-116179600D01*
X152184100Y-116179600D01*
X152184100Y-116687600D01*
G37*
G36*
X154724100Y-116687600D02*
X155232100Y-116687600D01*
X155232100Y-116179600D01*
X154724100Y-116179600D01*
X154724100Y-116687600D01*
G37*
G36*
X157264100Y-116687600D02*
X157772100Y-116687600D01*
X157772100Y-116179600D01*
X157264100Y-116179600D01*
X157264100Y-116687600D01*
G37*
G36*
X159804100Y-116687600D02*
X160312100Y-116687600D01*
X160312100Y-116179600D01*
X159804100Y-116179600D01*
X159804100Y-116687600D01*
G37*
G36*
X162344100Y-116687600D02*
X162852100Y-116687600D01*
X162852100Y-116179600D01*
X162344100Y-116179600D01*
X162344100Y-116687600D01*
G37*
G36*
X164884100Y-116687600D02*
X165392100Y-116687600D01*
X165392100Y-116179600D01*
X164884100Y-116179600D01*
X164884100Y-116687600D01*
G37*
D12*
X161749188Y-107294175D02*
X162239188Y-107294175D01*
X162239188Y-107742175D02*
X161749188Y-107742175D01*
D10*
G36*
X161440188Y-107822975D02*
X161740188Y-107822975D01*
X161740188Y-107223075D01*
X161440188Y-107223075D01*
X161440188Y-107822975D01*
G37*
G36*
X162252988Y-107822975D02*
X162552988Y-107822975D01*
X162552988Y-107223075D01*
X162252988Y-107223075D01*
X162252988Y-107822975D01*
G37*
D12*
X162723472Y-104773353D02*
X162723472Y-105263353D01*
X162275472Y-105263353D02*
X162275472Y-104773353D01*
D10*
G36*
X162194672Y-104464353D02*
X162194672Y-104764353D01*
X162794572Y-104764353D01*
X162794572Y-104464353D01*
X162194672Y-104464353D01*
G37*
G36*
X162194672Y-105277153D02*
X162194672Y-105577153D01*
X162794572Y-105577153D01*
X162794572Y-105277153D01*
X162194672Y-105277153D01*
G37*
D12*
X128216303Y-112716037D02*
X128216303Y-113206037D01*
X127768303Y-113206037D02*
X127768303Y-112716037D01*
D10*
G36*
X127687503Y-112407037D02*
X127687503Y-112707037D01*
X128287403Y-112707037D01*
X128287403Y-112407037D01*
X127687503Y-112407037D01*
G37*
G36*
X127687503Y-113219837D02*
X127687503Y-113519837D01*
X128287403Y-113519837D01*
X128287403Y-113219837D01*
X127687503Y-113219837D01*
G37*
D12*
X127285516Y-112724903D02*
X127285516Y-113214903D01*
X126837516Y-113214903D02*
X126837516Y-112724903D01*
D10*
G36*
X126756716Y-112415903D02*
X126756716Y-112715903D01*
X127356616Y-112715903D01*
X127356616Y-112415903D01*
X126756716Y-112415903D01*
G37*
G36*
X126756716Y-113228703D02*
X126756716Y-113528703D01*
X127356616Y-113528703D01*
X127356616Y-113228703D01*
X126756716Y-113228703D01*
G37*
D13*
X125276100Y-97919600D02*
X125026100Y-97919600D01*
X125026100Y-97919600D02*
X125026100Y-101419600D01*
X125026100Y-101419600D02*
X125276100Y-101419600D01*
X127276100Y-101419600D02*
X127526100Y-101419600D01*
X127526100Y-101419600D02*
X127526100Y-97919600D01*
X127526100Y-97919600D02*
X127276100Y-97919600D01*
X113538100Y-101603600D02*
X113538100Y-102003600D01*
X113538100Y-108003600D02*
X113538100Y-108403600D01*
X113538100Y-101603600D02*
X114338100Y-101603600D01*
X114338100Y-101603600D02*
X118538100Y-101603600D01*
X118538100Y-108403600D02*
X118538100Y-107203600D01*
X118538100Y-108403600D02*
X114338100Y-108403600D01*
X114338100Y-108403600D02*
X113538100Y-108403600D01*
X114338100Y-101603600D02*
X114338100Y-108403600D01*
X117138100Y-102803600D02*
X117138100Y-107203600D01*
X117138100Y-107203600D02*
X118538100Y-107203600D01*
X117138100Y-102803600D02*
X118538100Y-102803600D01*
X118538100Y-101603600D02*
X118538100Y-102803600D01*
D15*
X113538100Y-101603600D02*
X112938100Y-101003600D01*
X113538100Y-108403600D02*
X112938100Y-109003600D01*
D13*
X113538100Y-102003600D02*
X113138100Y-102003600D01*
X112888100Y-102203600D02*
X112888100Y-107753600D01*
X113088100Y-108003600D02*
X113538100Y-108003600D01*
X112888100Y-102203602D02*
G75*
G02X113138100Y-102003600I235001J-37499D01*
G01*
X113088102Y-108003600D02*
G75*
G02X112888100Y-107753600I37499J235001D01*
G01*
D12*
X128532100Y-98408600D02*
X128532100Y-98898600D01*
X128084100Y-98898600D02*
X128084100Y-98408600D01*
D10*
G36*
X128003300Y-98099600D02*
X128003300Y-98399600D01*
X128603200Y-98399600D01*
X128603200Y-98099600D01*
X128003300Y-98099600D01*
G37*
G36*
X128003300Y-98912400D02*
X128003300Y-99212400D01*
X128603200Y-99212400D01*
X128603200Y-98912400D01*
X128003300Y-98912400D01*
G37*
D12*
X128532100Y-96630600D02*
X128532100Y-97120600D01*
X128084100Y-97120600D02*
X128084100Y-96630600D01*
D10*
G36*
X128003300Y-96321600D02*
X128003300Y-96621600D01*
X128603200Y-96621600D01*
X128603200Y-96321600D01*
X128003300Y-96321600D01*
G37*
G36*
X128003300Y-97134400D02*
X128003300Y-97434400D01*
X128603200Y-97434400D01*
X128603200Y-97134400D01*
X128003300Y-97134400D01*
G37*
M02*
